<?xml version="1.0" standalone="no"?>
<!DOCTYPE svg PUBLIC "-//W3C//DTD SVG 20010904//EN"
 "http://www.w3.org/TR/2001/REC-SVG-20010904/DTD/svg10.dtd">
<svg version="1.0" xmlns="http://www.w3.org/2000/svg"
 width="295.000000pt" height="91.000000pt" viewBox="0 0 295.000000 91.000000"
 preserveAspectRatio="xMidYMid meet">

<g transform="translate(0.000000,91.000000) scale(0.100000,-0.100000)"
fill="#000000" stroke="none">
<path d="M135 866 c-41 -18 -83 -69 -90 -109 -3 -18 -5 -163 -3 -324 3 -276 4
-293 24 -319 11 -15 33 -37 48 -48 27 -21 30 -21 1346 -21 1316 0 1319 0 1346
21 15 11 37 33 48 48 20 26 21 40 21 346 0 306 -1 320 -21 346 -11 15 -33 37
-48 48 -27 21 -32 21 -1334 23 -1071 2 -1312 0 -1337 -11z m498 -184 c-18 -36
-84 -84 -98 -70 -25 25 42 123 88 130 29 4 33 -14 10 -60z m-139 -86 c41 -13
53 -12 92 1 52 18 100 12 138 -18 l26 -21 -25 -30 c-30 -36 -39 -67 -31 -111
6 -33 34 -71 57 -79 31 -10 -45 -144 -88 -154 -14 -4 -48 -1 -77 5 -42 10 -58
10 -92 -2 -33 -12 -45 -13 -70 -2 -55 23 -124 163 -124 252 0 67 41 135 95
159 38 17 42 17 99 0z m374 -48 c-6 -18 -28 -21 -28 -4 0 9 7 16 16 16 9 0 14
-5 12 -12z m867 -19 c10 -15 -1 -23 -20 -15 -9 3 -13 10 -10 16 8 13 22 13 30
-1z m646 -4 c-1 -15 -24 -12 -29 3 -3 9 2 13 12 10 10 -1 17 -7 17 -13z m79
-50 l0 -55 35 0 c28 0 35 4 35 20 0 11 7 20 15 20 17 0 20 -23 5 -51 -7 -13
-21 -19 -45 -19 -60 0 -65 6 -65 76 0 36 4 64 10 64 6 0 10 -25 10 -55z
m-1462 17 c30 -38 0 -102 -48 -102 -57 0 -80 73 -33 109 28 23 59 20 81 -7z
m96 22 c22 -9 10 -23 -14 -17 -29 8 -25 -17 8 -43 22 -19 25 -26 16 -41 -12
-20 -74 -31 -74 -14 0 6 11 11 24 11 37 0 39 14 6 39 -34 25 -36 33 -14 55 17
18 24 19 48 10z m-224 -64 c0 -47 -3 -60 -15 -60 -12 0 -15 13 -15 60 0 47 3
60 15 60 12 0 15 -13 15 -60z m1150 45 c0 -8 -7 -15 -15 -15 -8 0 -15 7 -15
15 0 8 7 15 15 15 8 0 15 -7 15 -15z m180 0 c0 -8 -7 -15 -15 -15 -8 0 -15 7
-15 15 0 8 7 15 15 15 8 0 15 -7 15 -15z m40 0 c0 -8 -7 -15 -15 -15 -8 0 -15
7 -15 15 0 8 7 15 15 15 8 0 15 -7 15 -15z m-560 -75 c35 0 81 20 74 31 -3 5
-18 9 -34 9 -16 0 -32 5 -35 11 -5 7 9 9 42 7 45 -3 48 -5 48 -30 -1 -23 4
-28 22 -28 16 0 23 6 23 20 0 26 28 26 32 0 2 -12 8 -21 13 -21 6 0 11 9 13
21 4 26 20 26 24 0 4 -27 22 -27 26 0 4 26 32 26 32 0 0 -16 7 -20 30 -20 23
0 30 4 30 20 0 11 5 20 11 20 6 0 9 -14 7 -32 l-3 -33 -130 -1 c-75 -1 -135 3
-143 9 -9 7 -21 6 -38 -2 -31 -14 -81 -14 -89 -1 -5 8 -11 7 -20 0 -19 -15
-56 -9 -69 12 -8 13 -6 26 8 55 l18 38 39 -43 c29 -31 47 -42 69 -42z m718 68
c17 -17 15 -85 -2 -91 -7 -3 -70 -6 -139 -6 -115 0 -128 1 -137 19 -15 27 -12
50 5 50 8 0 15 -9 15 -20 0 -18 7 -20 65 -20 58 0 65 2 65 20 0 11 4 20 9 20
5 0 11 -9 14 -20 4 -17 13 -20 54 -19 27 1 36 4 21 6 -31 5 -42 27 -28 54 12
21 40 25 58 7z m380 -68 c-3 -22 -8 -25 -50 -28 -38 -2 -48 0 -48 12 0 12 11
16 41 16 l41 0 -26 31 c-35 41 -22 59 16 23 20 -20 28 -36 26 -54z m-1313 17
c13 -53 -8 -91 -53 -95 -40 -4 -42 13 -2 22 36 7 38 18 8 31 -44 19 -36 88 9
83 23 -2 30 -10 38 -41z m-255 3 c0 -18 7 -20 65 -20 58 0 65 2 65 20 0 11 5
20 10 20 14 0 13 -43 -2 -58 -7 -7 -40 -12 -78 -12 -38 0 -71 5 -78 12 -17 17
-15 58 3 58 8 0 15 -9 15 -20z m1450 -21 c0 -59 -14 -79 -55 -79 -19 0 -35 5
-35 10 0 6 11 10 25 10 28 0 45 25 45 69 0 17 5 31 10 31 6 0 10 -18 10 -41z
m-1370 -64 c0 -8 -7 -15 -15 -15 -16 0 -20 12 -8 23 11 12 23 8 23 -8z m1220
-6 c0 -5 -7 -9 -15 -9 -15 0 -20 12 -9 23 8 8 24 -1 24 -14z m40 6 c0 -8 -7
-15 -15 -15 -16 0 -20 12 -8 23 11 12 23 8 23 -8z"/>
<path d="M931 486 c-20 -24 -10 -70 16 -74 38 -6 53 57 19 80 -16 11 -22 10
-35 -6z"/>
<path d="M1566 441 c-7 -11 18 -33 27 -24 4 3 7 12 7 20 0 15 -26 18 -34 4z"/>
<path d="M2360 460 c0 -5 7 -10 15 -10 8 0 15 5 15 10 0 6 -7 10 -15 10 -8 0
-15 -4 -15 -10z"/>
<path d="M1416 453 c-12 -12 -6 -33 9 -33 8 0 15 6 15 14 0 17 -14 28 -24 19z"/>
</g>
</svg>
