<svg xmlns="http://www.w3.org/2000/svg" width="124.96" height="126.944" viewBox="0 0 124.96 126.944">
    <defs>
        <style>
            .cls-2{fill:#e6e9ed}.cls-3{fill:#fff}.cls-6{fill:#303158}
        </style>
    </defs>
    <g id="user-interface" transform="translate(-1 -1)">
        <g id="Group_10730" transform="translate(3.015 3.015)">
            <g id="Group_10713" transform="translate(76.588 96.743)">
                <path id="Path_22234" fill="#0072ff" d="M40 50h34.263v24.186H40z" transform="translate(-36 -46)"/>
            </g>
            <g id="Group_10714" transform="translate(76.588 60.465)">
                <path id="Path_22235" d="M48.062 32v10.077a4.043 4.043 0 0 1-4.031 4.031A4.06 4.06 0 0 1 40 42.077V32z" class="cls-2" transform="translate(-40 -32)"/>
            </g>
            <g id="Group_10715" transform="translate(0 40.31)">
                <path id="Path_22236" d="M78.588 78.434v24.186H6.031A4.043 4.043 0 0 1 2 98.588V22h56.434v8.062H10.062v24.186h60.464v1.209a36.9 36.9 0 0 0 .645 6.853h-24.83v8.062h27.35a36.371 36.371 0 0 0 4.897 8.062z" class="cls-3" transform="translate(-2 -22)"/>
            </g>
            <g id="Group_10716" transform="translate(44.341 80.619)">
                <path id="Path_22237" d="M51.35 50.062H24V42h24.831a36.347 36.347 0 0 0 2.519 8.062z" class="cls-3" transform="translate(-24 -42)"/>
            </g>
            <g id="Group_10717" transform="translate(11.609 96.743)">
                <path id="Path_22238" d="M16.306 50H28.4a12.1 12.1 0 0 1-12.094 12.093 11.981 11.981 0 0 1-8.546-3.547z" class="cls-3" transform="translate(-7.76 -50)"/>
            </g>
            <g id="Group_10718" transform="translate(8.062 84.65)">
                <path id="Path_22239" d="M18.093 44v12.093l-8.546 8.546A11.981 11.981 0 0 1 6 56.093 12.1 12.1 0 0 1 18.093 44z" class="cls-3" transform="translate(-6 -44)"/>
            </g>
            <g id="Group_10719" transform="translate(20.155 84.65)">
                <path id="Path_22240" d="M24.093 56.093H12V44a12.1 12.1 0 0 1 12.093 12.093z" class="cls-3" transform="translate(-12 -44)"/>
            </g>
            <g id="Group_10720" transform="translate(8.062 48.372)">
                <path id="Path_22241" fill="#00d079" d="M66.465 38.093v12.093H6V26h48.372v8.062a4.043 4.043 0 0 0 4.028 4.031z" transform="translate(-10 -22)"/>
            </g>
            <g id="Group_10721" transform="translate(0 16.124)">
                <path id="Path_22242" fill="#e4e7ec" d="M58.434 10v24.186H2V14.031A4.043 4.043 0 0 1 6.031 10z" transform="translate(-2 -10)"/>
            </g>
            <g id="Group_10722" transform="translate(40.31 24.186)">
                <path id="Path_22243" d="M22 14h8.062v8.062H22z" class="cls-2" transform="translate(-22 -14)"/>
            </g>
            <g id="Group_10723" transform="translate(56.434)">
                <path id="Path_22244" d="M62.248 38.279a4.06 4.06 0 0 0-4.031 4.031v20.155h-8.062v-2.016a6.038 6.038 0 0 0-6.047-6.049 2.021 2.021 0 0 0-2.015 2.015v6.046h-8.062A4.043 4.043 0 0 1 30 58.434V6.031A4.043 4.043 0 0 1 34.031 2h56.434A4.043 4.043 0 0 1 94.5 6.031v52.4a4.043 4.043 0 0 1-4.031 4.031 4.06 4.06 0 0 0-4.031-4.031 4.043 4.043 0 0 0-4.038 4.034v-4.031a4.043 4.043 0 0 0-4.028-4.034 4.06 4.06 0 0 0-4.031 4.031V54.4a4.043 4.043 0 0 0-4.031-4.031 4.06 4.06 0 0 0-4.031 4.031V42.31a4.043 4.043 0 0 0-4.031-4.031z" class="cls-3" transform="translate(-30 -2)"/>
            </g>
            <g id="Group_10724" transform="translate(68.526 36.279)">
                <path id="Path_22245" d="M76.31 44.186a4.043 4.043 0 0 1 4.031-4.031 4.06 4.06 0 0 1 4.031 4.031v14.451a42.5 42.5 0 0 1-6.046 21.828H44.062a36.875 36.875 0 0 1-7.417-16.124A36.9 36.9 0 0 1 36 57.488V38.139a2.021 2.021 0 0 1 2.015-2.015 6.038 6.038 0 0 1 6.046 6.046v12.093a4.06 4.06 0 0 0 4.031 4.031 4.043 4.043 0 0 0 4.031-4.031V24.031A4.06 4.06 0 0 1 56.155 20a4.043 4.043 0 0 1 4.031 4.031v12.093a4.06 4.06 0 0 1 4.031-4.031 4.043 4.043 0 0 1 4.031 4.031v4.031a4.06 4.06 0 0 1 4.031-4.031 4.043 4.043 0 0 1 4.031 4.031z" class="cls-3" transform="translate(-36 -20)"/>
            </g>
            <g id="Group_10725" transform="translate(105.275 15.654)">
                <ellipse id="Ellipse_2673" cx="3.765" cy="4.235" class="cls-3" rx="3.765" ry="4.235"/>
            </g>
            <g id="Group_10726" transform="translate(84.569 11.89)">
                <circle id="Ellipse_2674" cx="4.235" cy="4.235" r="4.235" class="cls-3"/>
            </g>
            <g id="Group_10727" transform="translate(64.805 24.125)">
                <ellipse id="Ellipse_2675" cx="3.765" cy="4.235" class="cls-3" rx="3.765" ry="4.235"/>
            </g>
            <g id="Group_10728" transform="translate(24.186 24.186)">
                <path id="Path_22246" d="M14 14h8.062v8.062H14z" class="cls-2" transform="translate(-14 -14)"/>
            </g>
            <g id="Group_10729" transform="translate(8.062 24.186)">
                <path id="Path_22247" d="M6 14h8.062v8.062H6z" class="cls-2" transform="translate(-6 -14)"/>
            </g>
        </g>
        <g id="Group_10731" transform="translate(1 1)">
            <path id="Path_22248" d="M41.062 19.464V7h-4.031v12.464a6.011 6.011 0 0 0 0 11.351v12.464h4.031V30.815a6.011 6.011 0 0 0 0-11.351zm-2.015 7.691a2.015 2.015 0 1 1 2.015-2.015 2.016 2.016 0 0 1-2.016 2.015z" class="cls-6" transform="translate(31.495 5.093)"/>
            <path id="Path_22249" d="M61.062 11.4V7h-4.031v4.4a6.011 6.011 0 0 0 0 11.351v20.528h4.031V22.753a6.011 6.011 0 0 0 0-11.351zm-2.015 7.691a2.015 2.015 0 1 1 2.015-2.015 2.016 2.016 0 0 1-2.016 2.017z" class="cls-6" transform="translate(51.805 5.093)"/>
            <path id="Path_22250" d="M119.914 1H63.48a6.054 6.054 0 0 0-6.046 6.046v10.078H7.046A6.054 6.054 0 0 0 1 23.17v96.743a6.054 6.054 0 0 0 6.046 6.046h108.837v-25.65a44.445 44.445 0 0 0 6.046-22.38v-12.8a6.038 6.038 0 0 0 4.031-5.676V7.046A6.054 6.054 0 0 0 119.914 1zM63.48 65.5h6.046v8.062H13.093V53.4h44.341v6.046A6.054 6.054 0 0 0 63.48 65.5zM5.031 23.17a2.016 2.016 0 0 1 2.015-2.015h50.388V41.31H5.031zm72.557 98.759H7.046a2.016 2.016 0 0 1-2.015-2.015V45.341h52.4v4.031H9.062v28.216h60.5a38.417 38.417 0 0 0 .306 4.031H45.341v12.093h28.12a38.781 38.781 0 0 0 4.128 6.744zM70.583 85.65a39.27 39.27 0 0 0 1.177 4.031H49.372V85.65zm41.269 36.279H81.619v-20.155h30.232zm6.046-44a40.41 40.41 0 0 1-5.216 19.814H80.626a34.877 34.877 0 0 1-7.068-20.967V57.434a4.035 4.035 0 0 1 4.031 4.031v12.092a6.046 6.046 0 1 0 12.093 0V43.325a2.015 2.015 0 1 1 4.031 0v32.248h4.031V55.418a2.015 2.015 0 1 1 4.031 0v20.155h4.031V59.449a2.015 2.015 0 0 1 4.031 0v16.124h4.031V63.48a2.015 2.015 0 1 1 4.031 0zm-36.279-4.372V65.5h4.031v8.062a2.015 2.015 0 1 1-4.031 0zm8.062-54.418a2.015 2.015 0 1 1 2.019 2.016 2.016 2.016 0 0 1-2.019-2.016zm32.248 40.31a2 2 0 0 1-.609 1.437 5.989 5.989 0 0 0-7.687-3.009 6 6 0 0 0-8.062-4.031 5.945 5.945 0 0 0-7.828-4.1v-6.421a6.038 6.038 0 0 0-4.031-5.676V24.813a6.047 6.047 0 1 0-4.031 0V37.65a6.038 6.038 0 0 0-4.031 5.676v18.139h-4.031a8.07 8.07 0 0 0-8.062-8.065 4.035 4.035 0 0 0-4.031 4.031v4.031H63.48a2.016 2.016 0 0 1-2.015-2.015V7.046a2.016 2.016 0 0 1 2.015-2.015h56.434a2.016 2.016 0 0 1 2.015 2.015z" class="cls-6" transform="translate(-1 -1)"/>
            <path id="Path_22251" d="M19.108 43a14.108 14.108 0 1 0 14.109 14.108A14.126 14.126 0 0 0 19.108 43zM9.031 57.108a10.1 10.1 0 0 1 8.062-9.874v9.039l-6.383 6.384a10.014 10.014 0 0 1-1.679-5.549zm10.077 10.078a10.014 10.014 0 0 1-5.549-1.679l6.383-6.383h9.039a10.1 10.1 0 0 1-9.873 8.062zm2.015-12.093v-7.858a10.109 10.109 0 0 1 7.858 7.858z" class="cls-6" transform="translate(3.062 41.65)"/>
            <path id="Path_22252" d="M23 49h8.062v4.031H23z" class="cls-6" transform="translate(21.341 47.743)"/>
            <path id="Path_22253" d="M29 49h16.124v4.031H29z" class="cls-6" transform="translate(27.434 47.743)"/>
            <path id="Path_22254" d="M23 57h8.062v4.031H23z" class="cls-6" transform="translate(21.341 55.867)"/>
            <path id="Path_22255" d="M29 57h16.124v4.031H29z" class="cls-6" transform="translate(27.434 55.867)"/>
            <path id="Path_22256" d="M23 53h28.217v4.031H23z" class="cls-6" transform="translate(21.341 51.805)"/>
            <path id="Path_22257" d="M5 25.093h12.093V13H5zm4.031-8.062h4.031v4.031H9.031z" class="cls-6" transform="translate(3.062 11.186)"/>
            <path id="Path_22258" d="M13 25.093h12.093V13H13zm4.031-8.062h4.031v4.031h-4.031z" class="cls-6" transform="translate(11.186 11.186)"/>
            <path id="Path_22259" d="M21 25.093h12.093V13H21zm4.031-8.062h4.031v4.031h-4.031z" class="cls-6" transform="translate(19.31 11.186)"/>
        </g>
    </g>
</svg>
