<svg xmlns="http://www.w3.org/2000/svg" width="123.033" height="120.985" viewBox="0 0 123.033 120.985">
    <defs>
        <style>
            .cls-6{fill:#303158}
        </style>
    </defs>
    <g id="Layer_14" transform="translate(3.032 -1)">
        <path id="Path_22208" fill="#e3e5ef" d="M83.833 45.66l-6.459-1.444A26.461 26.461 0 0 1 60.417 32a26.461 26.461 0 0 1-16.958 12.216L37 45.66a54.639 54.639 0 0 0 21.855 43.71l1.561 1.171 1.561-1.171a54.639 54.639 0 0 0 21.856-43.71z" transform="translate(34.216 29.493)"/>
        <path id="Path_22209" fill="#fff" d="M50.386 81.467C66 77.252 77.979 63.007 81.1 45.055l-3.727-.839A26.461 26.461 0 0 1 60.417 32a26.461 26.461 0 0 1-16.958 12.216L37 45.66a54.639 54.639 0 0 0 13.386 35.807z" transform="translate(34.216 29.493)"/>
        <path id="Path_22210" fill="#e4e7ec" d="M8.951 52.736h9.757V33.222a19.514 19.514 0 1 1 39.028 0v19.514h9.757a7.981 7.981 0 0 1 1.951.273V33.222a31.222 31.222 0 1 0-62.444 0v19.787a7.981 7.981 0 0 1 1.951-.273z" transform="translate(5.675 .951)"/>
        <path id="Path_22211" fill="#0072ff" d="M2 36h23.417v35.125H2z" transform="translate(-5.032 37.265)"/>
        <ellipse id="Ellipse_2672" cx="12" cy="11" fill="#00d079" rx="12" ry="11" transform="translate(86.001 81.493)"/>
        <path id="Path_22213" d="M33.6 56.465V40.854a5.854 5.854 0 1 0-11.708 0v15.611a9.757 9.757 0 0 0 3.532 17.25 10.479 10.479 0 0 0 2.322.312A9.757 9.757 0 0 0 33.6 56.465zm-2.229 12.352a5.854 5.854 0 1 1-6.557-9.62 1.951 1.951 0 0 0 .976-1.7V40.854a1.951 1.951 0 0 1 3.9 0v16.684a1.951 1.951 0 0 0 .976 1.7 5.854 5.854 0 0 1 .7 9.62z" class="cls-6" transform="translate(16.155 32.347)"/>
        <path id="Path_22214" d="M118.512 73.2l-6.459-1.425a24.646 24.646 0 0 1-15.611-11.317 1.951 1.951 0 0 0-3.356 0 24.49 24.49 0 0 1-10.128 9.289v-8.254a9.757 9.757 0 0 0-5.858-8.938V34.173a33.173 33.173 0 1 0-66.347 0v18.382A9.757 9.757 0 0 0 4.9 61.493v5.854H2.951A1.951 1.951 0 0 0 1 69.3v35.125a1.951 1.951 0 0 0 1.951 1.951H4.9v5.854a9.757 9.757 0 0 0 9.757 9.757H73.2a9.757 9.757 0 0 0 9.757-9.757v-.254a56.747 56.747 0 0 0 8.976 8.449L93.5 121.6a1.951 1.951 0 0 0 2.342 0l1.561-1.171a56.883 56.883 0 0 0 22.636-45.272 1.951 1.951 0 0 0-1.522-1.951zM14.66 34.173a29.271 29.271 0 1 1 58.541 0v17.563H65.4V34.173a21.465 21.465 0 1 0-42.93 0v17.563h-7.81zm46.833 17.563H26.368V34.173a17.562 17.562 0 1 1 35.125 0zM24.417 71.25v7.806H4.9V71.25zM4.9 102.472v-7.806h19.517v7.806zm19.517-11.709H4.9v-7.805h19.517zm54.639 21.465a5.854 5.854 0 0 1-5.854 5.854H14.66a5.854 5.854 0 0 1-5.854-5.854v-5.854h17.562a1.951 1.951 0 0 0 1.951-1.951V69.3a1.951 1.951 0 0 0-1.951-1.951H8.806v-5.856a5.854 5.854 0 0 1 5.854-5.854H73.2a5.854 5.854 0 0 1 5.854 5.854v9.757c-.585.176-1.171.351-1.776.488L70.82 73.2a1.951 1.951 0 0 0-1.52 1.952 56.863 56.863 0 0 0 9.757 31.69zm16 5.074l-.39.293-.39-.293A52.98 52.98 0 0 1 73.2 76.713l4.9-1.093a28.549 28.549 0 0 0 16.566-10.634 28.549 28.549 0 0 0 16.548 10.635l4.917 1.093A52.98 52.98 0 0 1 95.056 117.3z" class="cls-6" transform="translate(-.034)"/>
        <path id="Path_22215" d="M67.408 41.306l-3.473-1.756-1.327 2.634a13.835 13.835 0 1 0 3.064 2.459zm-1.736 12.782a9.854 9.854 0 1 1-4.82-8.371l-5.269 10.537-3.9-5.288-3.122 2.342 5.854 7.806a1.951 1.951 0 0 0 1.561.781h.176a1.951 1.951 0 0 0 1.558-1.075l6.19-12.372a9.6 9.6 0 0 1 1.776 5.639z" class="cls-6" transform="translate(38.718 36.676)"/>
    </g>
</svg>
