<svg xmlns="http://www.w3.org/2000/svg" width="226" height="67" viewBox="0 0 226 67">
    <defs>
        <style>
            .cls-2{fill:#fefefe}.cls-4{fill:#fff;fill-rule:evenodd}
        </style>
    </defs>
    <g id="befarma_app_btn_bazaar" transform="translate(-.476 .135)">
        <g id="_2973266791232">
            <rect id="Rectangle_1212" width="226" height="67" fill="#3e3e3e" rx="12" transform="translate(.476 -.135)"/>
            <g id="Group_8726" transform="translate(19.955 10.2)">
                <path id="Path_3528" d="M79446.625 8827.895a.848.848 0 0 1 .242-.63.882.882 0 0 1 .656-.264.862.862 0 0 1 .625.264.9.9 0 0 1 .266.63.944.944 0 0 1-.266.64.853.853 0 0 1-.625.27.872.872 0 0 1-.656-.27.887.887 0 0 1-.242-.64zm-1.937 7.571a2.475 2.475 0 0 0 1.641-.445 1.588 1.588 0 0 0 .539-1.231v-3.738h1.227v3.445a3.871 3.871 0 0 1-.219 1.261 3.206 3.206 0 0 1-.57 1.016 2.8 2.8 0 0 1-.945.68 2.727 2.727 0 0 1-1.227.229l-.945-.014-.187-1.2z" class="cls-2" transform="translate(-79308.438 -8820.473)"/>
                <path id="Path_3529" d="M82513.008 8430.494h1.117V8423h-1.117z" class="cls-2" transform="translate(-82371.477 -8417.256)"/>
                <path id="Path_3530" d="M85237.922 9105.784a.722.722 0 0 1 .2-.554.681.681 0 0 1 .523-.229.821.821 0 0 1 .789.783.647.647 0 0 1-.25.533.707.707 0 0 1-.539.221.7.7 0 0 1-.523-.221.678.678 0 0 1-.2-.533zm-2.125 0a.766.766 0 0 1 .219-.554.8.8 0 0 1 .555-.229.658.658 0 0 1 .523.229.7.7 0 0 1 .234.554.655.655 0 0 1-.234.533.673.673 0 0 1-.523.221.822.822 0 0 1-.555-.221.719.719 0 0 1-.216-.533zm7.773 5.388a4.781 4.781 0 0 1-.859-.086 1.66 1.66 0 0 1-.727-.346 1.564 1.564 0 0 1-1.133.432h-6.164a1.531 1.531 0 0 1-1.281-.49 2.143 2.143 0 0 1-.406-1.405v-1.765h1.164v1.584a.938.938 0 0 0 .219.685.91.91 0 0 0 .656.189h5.563c.336 0 .523-.067.625-.217a1.154 1.154 0 0 0 .133-.657v-1.584h1.211v1.641a.679.679 0 0 0 .32.648 1.381 1.381 0 0 0 .68.169h.133v1.2z" class="cls-2" transform="translate(-85086.195 -9097.93)"/>
                <path id="Path_3531" d="M90559.43 8095a1.624 1.624 0 0 0-.086-.5 1.81 1.81 0 0 0-.242-.445 1.21 1.21 0 0 0-.367-.316.829.829 0 0 0-.453-.122.866.866 0 0 0-.7.232.8.8 0 0 0-.2.566.409.409 0 0 0 .258.425 1.855 1.855 0 0 0 .492.115zm-2.047-4.105a.877.877 0 0 1 .227-.633.963.963 0 0 1 .672-.261.9.9 0 0 1 .633.261.807.807 0 0 1 .25.633.827.827 0 0 1-.25.638.883.883 0 0 1-.633.27.946.946 0 0 1-.672-.27.9.9 0 0 1-.227-.639zm-2.391 6.154c0-.041.008-.069.1-.083a1.441 1.441 0 0 1 .273-.026h3.18a.7.7 0 0 0 .883-.753l-1.523-.046a1.327 1.327 0 0 1-1.117-.522 2.126 2.126 0 0 1-.375-1.263 2.251 2.251 0 0 1 .141-.769 2.478 2.478 0 0 1 .4-.616 2.128 2.128 0 0 1 .633-.407 2.1 2.1 0 0 1 .82-.146 1.978 1.978 0 0 1 .922.215 1.735 1.735 0 0 1 .656.563 2.47 2.47 0 0 1 .414.782 2.927 2.927 0 0 1 .148.9v.879a4.805 4.805 0 0 1-.109.907 2.218 2.218 0 0 1-.359.761 1.3 1.3 0 0 1-.547.526 1.514 1.514 0 0 1-.8.189h-3.367a1.616 1.616 0 0 1-.273-.023c-.094-.014-.1-.042-.1-.082z" class="cls-2" transform="translate(-90397.867 -8084.901)"/>
                <path id="Path_3532" d="M94370.961 8430.494a2.211 2.211 0 0 1-1.461-.451 1.962 1.962 0 0 1-.508-1.471V8423h1.164v5.371a.935.935 0 0 0 .25.754 1.1 1.1 0 0 0 .641.168h.3v1.2z" class="cls-2" transform="translate(-94204.477 -8417.256)"/>
                <path id="Path_3533" d="M95226.953 10403.68a.675.675 0 0 1 .234-.53.707.707 0 0 1 .555-.224.719.719 0 0 1 .539.224.787.787 0 0 1 .227.53.847.847 0 0 1-.227.554.708.708 0 0 1-.539.23.7.7 0 0 1-.555-.23.724.724 0 0 1-.234-.554zm-1.664-3.111c0-.038.07-.067.109-.08a1.178 1.178 0 0 1 .25-.027h1.555a1.556 1.556 0 0 0 .508-.067 3.205 3.205 0 0 0 .266-.184 2.566 2.566 0 0 1 .117-.277V10398h1.219v1.768a2.083 2.083 0 0 1-.461 1.38 1.5 1.5 0 0 1-1.266.517h-1.937a1.732 1.732 0 0 1-.25-.026c-.039-.014-.109-.04-.109-.081zm-.3 3.111a.8.8 0 0 1 .2-.53.83.83 0 0 1 .57-.224.679.679 0 0 1 .531.224.693.693 0 0 1 .227.53.745.745 0 0 1-.227.554.669.669 0 0 1-.531.23.815.815 0 0 1-.57-.23.86.86 0 0 1-.197-.554z" class="cls-2" transform="translate(-95058.789 -10388.422)"/>
                <path id="Path_3534" d="M97542.891 10402.972a1.51 1.51 0 0 0 .531-1.23V10398h1.227v3.444a3.843 3.843 0 0 1-.2 1.261 3.291 3.291 0 0 1-.586 1.02 2.966 2.966 0 0 1-.906.669 3.25 3.25 0 0 1-1.227.239l-.547-.016-.18-1.2h.273a2.475 2.475 0 0 0 1.615-.445z" class="cls-2" transform="translate(-97370.305 -10388.422)"/>
                <path id="Path_3535" d="M100223.125 9380.648l-.133-1.188h3.82a.629.629 0 0 0 .422-.128.455.455 0 0 0 .156-.3.688.688 0 0 0-.219-.446l-2.633-2.788.773-.8 2.633 2.786a4.979 4.979 0 0 1 .453.659 2.5 2.5 0 0 1 .133.689 1.343 1.343 0 0 1-.469 1.065 1.664 1.664 0 0 1-1.281.448z" class="cls-2" transform="translate(-100047.102 -9367.406)"/>
                <path id="Path_3536" d="M36994.406 15623.129h2.883v-19.429h-2.883zm26.1-12.428l-3.316 8.422h-.1l-3.445-8.422h-3.109l5.16 11.77-2.961 6.547h3.031l7.977-18.316zm-16.434 10.223c-.949 0-2.285-.475-2.285-1.648 0-1.5 1.656-2.074 3.094-2.074a5.18 5.18 0 0 1 2.645.646 3.523 3.523 0 0 1-3.456 3.076zm.348-10.646a5.421 5.421 0 0 0-5.168 2.977l2.578 1.074a2.736 2.736 0 0 1 2.641-1.428 2.8 2.8 0 0 1 3.055 2.5v.2a6.413 6.413 0 0 0-3.031-.752c-2.766 0-5.609 1.527-5.609 4.375 0 2.6 2.289 4.277 4.84 4.277a4.108 4.108 0 0 0 3.7-1.9h.1v1.5h2.8v-7.449c-.006-3.452-2.58-5.375-5.908-5.375zm-17.922 2.787h-4.117v-6.656h4.117a3.329 3.329 0 1 1 0 6.656zm-.066-9.363h-6.953v19.428h2.9v-7.361h4.051a6.042 6.042 0 1 0 0-12.066zm-37.891 17.223a4.019 4.019 0 0 1 0-8.01c1.973 0 3.527 1.705 3.527 4.029a3.694 3.694 0 0 1-3.529 3.98zm3.328-9.135h-.1a4.594 4.594 0 0 0-3.477-1.477 6.615 6.615 0 0 0 0 13.219 4.52 4.52 0 0 0 3.477-1.5h.1v.955c0 2.525-1.355 3.877-3.523 3.877a3.632 3.632 0 0 1-3.324-2.352l-2.551 1.051a6.31 6.31 0 0 0 5.875 3.9c3.4 0 6.281-2 6.281-6.887v-11.867h-2.758zm4.766 11.34h2.9v-19.43h-2.9zm7.168-6.408a3.641 3.641 0 0 1 3.457-3.857 2.562 2.562 0 0 1 2.457 1.4zm9.02-2.2a6.14 6.14 0 0 0-5.656-4.205 6.275 6.275 0 0 0-6.227 6.611 6.455 6.455 0 0 0 6.543 6.607 6.59 6.59 0 0 0 5.52-2.93l-2.262-1.5a3.776 3.776 0 0 1-3.258 1.824 3.347 3.347 0 0 1-3.187-2l8.832-3.654zm-70.406-2.176v2.8h6.707a5.765 5.765 0 0 1-1.52 3.527 6.873 6.873 0 0 1-5.187 2.057 7.463 7.463 0 0 1 0-14.924 7.119 7.119 0 0 1 5.051 2l1.977-1.979a9.764 9.764 0 0 0-7.027-2.826 10.266 10.266 0 1 0 0 20.529 9.411 9.411 0 0 0 7.164-2.877 9.273 9.273 0 0 0 2.43-6.561 10.046 10.046 0 0 0-.148-1.752zm17.219 8.582a4.016 4.016 0 1 1 3.723-4 3.816 3.816 0 0 1-3.726 3.996zm0-10.611a6.609 6.609 0 1 0 6.625 6.611 6.519 6.519 0 0 0-6.628-6.615zm14.465 10.611a4.015 4.015 0 1 1 3.734-4 3.823 3.823 0 0 1-3.735 3.996zm0-10.611a6.609 6.609 0 1 0 6.633 6.611 6.511 6.511 0 0 0-6.634-6.615z" class="cls-2" transform="translate(-36839.004 -15583.325)"/>
                <g id="Group_699">
                    <path id="Path_3537" fill="#fff" d="M10223.789 6391.123a3.392 3.392 0 0 0-.79 2.388v37.568a3.392 3.392 0 0 0 .79 2.387l.124.121 21.043-21.042v-.5l-21.043-21.045z" transform="translate(-10222.999 -6389.197)"/>
                    <path id="Path_3538" d="M21545.014 13635.531l-7.014-7.014v-.5l7.014-7.015.16.091 8.309 4.723c2.379 1.348 2.379 3.553 0 4.9l-8.309 4.723z" class="cls-4" transform="translate(-21513.543 -13605.172)"/>
                    <path id="Path_3539" d="M10657.341 17372.176l-7.175-7.172-21.166 21.166c.784.834 2.077.93 3.528.107z" class="cls-4" transform="translate(-10626.956 -17340.656)"/>
                    <path id="Path_3540" d="M10657.341 6121.542l-24.814-14.1c-1.451-.828-2.744-.725-3.528.1l21.168 21.171z" class="cls-4" transform="translate(-10626.956 -6106.87)"/>
                </g>
            </g>
        </g>
    </g>
</svg>
