<svg xmlns="http://www.w3.org/2000/svg" width="136.783" height="124.96" viewBox="0 0 136.783 124.96">
    <defs>
        <style>
            .cls-1{fill:#e4e7ec}.cls-4{fill:#303158}
        </style>
    </defs>
    <g id="customer-service" transform="translate(0 -22.129)">
        <g id="Group_10735" transform="translate(2.672 87.356)">
            <path id="Path_22260" d="M22.582 266.282c0 4.951-5.95 8.864-9.846 10.725A4.83 4.83 0 0 0 10 281.37v11.157a4.83 4.83 0 0 0 2.737 4.362c3.9 1.861 9.846 5.774 9.846 10.725h12.582v-41.332z" class="cls-1" transform="translate(-10 -266.282)"/>
        </g>
        <g id="Group_10736" transform="translate(108.947 87.356)">
            <path id="Path_22261" d="M420.082 266.282c0 4.951 6.253 8.864 10.15 10.725a4.83 4.83 0 0 1 2.737 4.362v11.157a4.83 4.83 0 0 1-2.737 4.362c-3.9 1.861-10.15 5.774-10.15 10.725H407.8v-41.331z" class="cls-1" transform="translate(-407.803 -266.282)"/>
        </g>
        <g id="Group_10738" transform="translate(43.665 64.38)">
            <path id="Path_22263" fill="#00d079" d="M188.428 180.282a24.984 24.984 0 0 0-19.546 40.546v12.842l12.047-4.566a24.987 24.987 0 1 0 7.5-48.823z" transform="translate(-158.443 -177.282)"/>
        </g>
        <g id="Group_10739" transform="translate(57.96 130.295)">
            <path id="Path_22264" fill="#0072ff" d="M250.557 450.46H240.3c-2.555 0-4.627-1.512-4.627-3.378v-5.467c0-1.865 2.072-3.378 4.627-3.378h10.262c2.555 0 4.627 1.512 4.627 3.378v5.467c-.004 1.866-2.076 3.378-4.632 3.378z" transform="translate(-238.668 -435.238)"/>
        </g>
        <g id="Group_10740" transform="translate(0 22.129)">
            <path id="Path_22265" d="M132.527 95.671a26.488 26.488 0 0 1-5.909-3.787c-1.241-1.108-2.721-2.793-2.721-4.528v-9.569a56.676 56.676 0 0 0-14.66-37.6C98.7 28.265 82.183 22.129 68.24 22.129c-13.867 0-29.875 5.907-40.792 17.837a55.887 55.887 0 0 0-14.865 37.82v9.569c0 3.2-4.485 6.48-8.326 8.315A7.537 7.537 0 0 0 0 102.444V113.6a7.536 7.536 0 0 0 4.257 6.773c3.841 1.835 8.326 5.113 8.326 8.315a2.671 2.671 0 0 0 2.672 2.672h12.582a2.671 2.671 0 0 0 2.672-2.672V87.356a2.672 2.672 0 0 0-2.672-2.672h-9.911v-6.9a50.093 50.093 0 0 1 12.065-32.65c.009-.093 3.535-3.75 3.7-3.9a50.224 50.224 0 0 1 69.3.192c.382.454 3.224 3.906 3.678 3.914a50.087 50.087 0 0 1 11.887 32.439v6.9h-9.607a2.671 2.671 0 0 0-2.672 2.672v39.828l-22.558 13.67a6.162 6.162 0 0 1-3.194.892h-1.949c.009-.133.02-.266.02-.4v-4.975a5.752 5.752 0 0 0-5.745-5.745H56.034a5.752 5.752 0 0 0-5.745 5.745v4.975a5.752 5.752 0 0 0 5.745 5.745h24.488a11.506 11.506 0 0 0 5.963-1.666l23.207-14.063h11.532a2.671 2.671 0 0 0 2.672-2.672c0-1.736 1.48-3.421 2.721-4.528a26.488 26.488 0 0 1 5.909-3.787 7.536 7.536 0 0 0 4.257-6.773v-11.153a7.536 7.536 0 0 0-4.257-6.773zM6.56 115.552a2.167 2.167 0 0 1-1.217-1.952v-11.156a2.167 2.167 0 0 1 1.217-1.952 30.714 30.714 0 0 0 6.023-3.759v22.579a30.706 30.706 0 0 0-6.023-3.759zm18.605-25.525v35.99h-7.239v-35.99zm43.753 51.719H56.034a.4.4 0 0 1-.4-.4v-4.975a.4.4 0 0 1 .4-.4h16.817a.4.4 0 0 1 .4.4v4.975a.4.4 0 0 1-.4.4zm42.7-51.719h6.936v35.99h-6.936zM131.44 113.6a2.167 2.167 0 0 1-1.217 1.952 31.822 31.822 0 0 0-6.327 3.879V96.613a31.821 31.821 0 0 0 6.327 3.879 2.167 2.167 0 0 1 1.217 1.952z" class="cls-4" transform="translate(0 -22.129)"/>
            <path id="Path_22266" d="M181.1 225.6a27.657 27.657 0 1 0-22.219-11.189v11.938a2.7 2.7 0 0 0 3.618 2.5l11.206-4.247a27.7 27.7 0 0 0 7.394 1zm-8.447-6.316l-8.428 3.195v-8.885a2.673 2.673 0 0 0-.581-1.754 22.07 22.07 0 0 1-4.856-13.9 22.29 22.29 0 1 1 15.614 21.29 2.669 2.669 0 0 0-1.75.049z" class="cls-4" transform="translate(-112.45 -130.703)"/>
            <path id="Path_22267" d="M250.641 272.674a2.672 2.672 0 0 0 2.671-2.674v-15.4a2.672 2.672 0 0 0-5.343 0V270a2.672 2.672 0 0 0 2.672 2.674z" class="cls-4" transform="translate(-181.723 -190.537)"/>
            <path id="Path_22268" d="M248.193 220.655a2.669 2.669 0 1 0 1.443-3.489 2.692 2.692 0 0 0-1.443 3.489z" class="cls-4" transform="translate(-181.741 -164.915)"/>
        </g>
    </g>
</svg>
