<svg xmlns="http://www.w3.org/2000/svg" width="121.967" height="124.957" viewBox="0 0 121.967 124.957">
    <defs>
        <style>
            .cls-1{fill:#009698}.cls-2{fill:#fff}.cls-3{fill:#e4e7ec}.cls-6{fill:#e3e5ef}.cls-8{fill:#303158}
        </style>
    </defs>
    <g id="financail-money-payment-pay-hand" transform="translate(-42.769 -170.348)">
        <g id="Group_10711" transform="translate(69.195 201.896)">
            <path id="Path_22216" d="M153.213 302.2h93.507v52.85h-93.507z" class="cls-1" transform="translate(-153.213 -302.198)"/>
            <path id="Path_22217" d="M153.213 302.2h93.507v52.85h-93.507z" class="cls-1" transform="translate(-153.213 -302.198)"/>
            <path id="Path_22218" d="M153.213 302.2h93.507v52.85h-93.507z" class="cls-1" transform="translate(-153.213 -302.198)"/>
            <path id="Path_22219" d="M153.213 302.2h93.507v52.85h-93.507z" class="cls-2" transform="translate(-153.213 -302.198)"/>
        </g>
        <path id="Path_22220" d="M281.433 259.72v10.164h-77.245l73.241-9.635z" class="cls-3" transform="translate(-122.796 -67.988)"/>
        <path id="Path_22221" d="M258.043 227.406l.061.529-73.241 9.635h-6.078l79.257-20.327z" class="cls-3" transform="translate(-103.472 -35.674)"/>
        <path id="Path_22222" fill="#00d079" d="M291.223 336.181a18.295 18.295 0 1 1-16.4 26.385 8.267 8.267 0 0 0 1.484-4.655c-.02-.488-.061-.955-.122-1.423a8.287 8.287 0 0 0-2.256-4.33 7.477 7.477 0 0 0-.752-.651 18.3 18.3 0 0 1 18.046-15.326z" transform="translate(-172.274 -121.154)"/>
        <path id="Path_22223" fill="#00bd6e" d="M354.049 354.476a18.3 18.3 0 0 1-18.3 18.295 18.835 18.835 0 0 1-4.045-.447 18.295 18.295 0 0 0 .02-35.675 17.469 17.469 0 0 1 4.025-.468 18.3 18.3 0 0 1 18.3 18.295z" transform="translate(-216.805 -121.154)"/>
        <path id="Path_22224" d="M107.37 236.787c.061.468.1.935.122 1.423a8.267 8.267 0 0 1-1.484 4.655 7.4 7.4 0 0 1-.894 1.077L87.856 261.2l6.586 6.586a12.182 12.182 0 0 1 3.578 8.639v7.135H58.807l-7.236-25.328a8.349 8.349 0 0 1-.3-2.236v-25.145a7.979 7.979 0 0 1 1.1-4.065L77.692 182.9a8.133 8.133 0 1 1 14.087 8.131l-10 17.319h-6.12v42.688l17.949-18.58a8.131 8.131 0 0 1 10.753-.651 7.482 7.482 0 0 1 .752.651 8.287 8.287 0 0 1 2.256 4.33z" class="cls-2" transform="translate(-6.464 -6.452)"/>
        <path id="Path_22225" d="M197.973 401.175a8.267 8.267 0 0 1-1.484 4.655 7.4 7.4 0 0 1-.894 1.077l-17.258 17.258 6.586 6.586a12.182 12.182 0 0 1 3.578 8.639v7.135h-8.131v-7.135a12.181 12.181 0 0 0-3.578-8.639l-6.586-6.586 17.258-17.258a7.388 7.388 0 0 0 .894-1.077 8.267 8.267 0 0 0 1.484-4.655c-.02-.488-.061-.955-.122-1.423a8.286 8.286 0 0 0-2.257-4.33 7.485 7.485 0 0 0-.752-.651 6.86 6.86 0 0 0-.935-.63 8.131 8.131 0 0 1 9.066.63 7.484 7.484 0 0 1 .752.651 8.287 8.287 0 0 1 2.256 4.33c.062.468.103.935.123 1.423z" class="cls-6" transform="translate(-96.945 -169.418)"/>
        <path id="Path_22226" fill="#0072ff" d="M112.978 616.539v12.2H68.257v-12.2h44.721z" transform="translate(-22.39 -333.431)"/>
        <path id="Path_22227" d="M144.56 187.015a8.162 8.162 0 0 1-1.077 4.045l-10.448 17.319-3.861 1.4-1.811 8.769V259.2h-8.131v-40.657l16.12-27.483a8.145 8.145 0 0 0-2.988-11.1 8.131 8.131 0 0 1 12.2 7.054z" class="cls-6" transform="translate(-58.168 -6.483)"/>
        <path id="Path_22228" d="M510.032 302.2h8.131v52.85h-8.131z" class="cls-6" transform="translate(-355.461 -100.302)"/>
        <path id="Path_22229" d="M162.7 199.863h-2.03v-8.131a2.033 2.033 0 0 0-2.036-2.029 1.993 1.993 0 0 0-.261.017l-1.768.223v-8.375a2 2 0 0 0-.793-1.606 2.063 2.063 0 0 0-1.748-.366L79.5 198.725l7.582-13.132a10.3 10.3 0 0 0 1.342-5.062 10.164 10.164 0 0 0-18.966-5.1L44.151 219.3a10.109 10.109 0 0 0-1.382 5.1v25.145a10.014 10.014 0 0 0 .386 2.785l6.485 22.746h-.772a2.033 2.033 0 0 0-2.033 2.033v12.2a2.033 2.033 0 0 0 2.033 2.033h44.72a2.033 2.033 0 0 0 2.033-2.033v-12.2a2.033 2.033 0 0 0-2.033-2.033v-5.1a14.231 14.231 0 0 0-4.167-10.083l-3.13-3.11H162.7a2.033 2.033 0 0 0 2.033-2.033V201.9a2.033 2.033 0 0 0-2.033-2.033zm-6.1-5.814v5.814h-44.168zm-4.065-9.859v6.3l-50.433 6.627zm-60.98 103.082H50.9v-8.131h40.655zM79.522 255.52a1.859 1.859 0 0 0 .447.651l-.02.02 6.586 6.586a10.051 10.051 0 0 1 2.988 7.2v5.1H53.868l-6.81-23.844a6.751 6.751 0 0 1-.224-1.687V224.4a5.927 5.927 0 0 1 .833-3.049L73 177.462a6.047 6.047 0 0 1 8.251-2.252l.064.037a6 6 0 0 1 3.049 5.285 6.1 6.1 0 0 1-.813 3.029l-9.412 16.3H69.2a2.033 2.033 0 0 0-2.033 2.033v42.688a2.065 2.065 0 0 0 1.26 1.89 2.033 2.033 0 0 0 2.236-.488l17.929-18.539a6.113 6.113 0 0 1 10.302 3.155c.041.407.081.813.1 1.138a6.23 6.23 0 0 1-1.789 4.31L79.948 253.3a2.032 2.032 0 0 0-.427 2.216zm81.148-2.8H86.291L99.2 239.828a20.124 20.124 0 0 0 16.75 8.822 20.328 20.328 0 1 0-19.393-26.365 10.23 10.23 0 0 0-10.876 2.315l-14.453 14.963v-35.634h89.442zm-57.77-22.772a10.217 10.217 0 0 0-2.765-5.326 16.309 16.309 0 1 1 1.748 11.77 10.931 10.931 0 0 0 1.179-4.716c-.021-.549-.082-1.076-.162-1.728z" class="cls-8"/>
        <path id="Path_22231" d="M182.765 329.1a8.16 8.16 0 0 0 5.84-5.84h4.324v-4.07h-6.1a2.033 2.033 0 0 0-2.033 2.033 4.065 4.065 0 0 1-4.066 4.065 2.033 2.033 0 0 0-2.033 2.033v6.1h4.066V329.1z" class="cls-8" transform="translate(-103.406 -113.229)"/>
        <path id="Path_22232" d="M469.224 337.592v4.324h4.065v-6.1a2.033 2.033 0 0 0-2.033-2.033 4.065 4.065 0 0 1-4.065-4.066 2.033 2.033 0 0 0-2.033-2.033h-6.1v4.065h4.323a8.158 8.158 0 0 0 5.843 5.843z" class="cls-8" transform="translate(-316.685 -119.692)"/>
        <path id="Path_22233" d="M467.191 450.327a4.065 4.065 0 0 1 4.065-4.065 2.033 2.033 0 0 0 2.033-2.033v-6.1h-4.065v4.324a8.158 8.158 0 0 0-5.84 5.84h-4.324v4.065h6.1a2.033 2.033 0 0 0 2.031-2.031z" class="cls-8" transform="translate(-316.685 -203.71)"/>
    </g>
</svg>
